<svg width="512" height="480" viewBox="0 0 512 480" fill="none" xmlns="http://www.w3.org/2000/svg">
<mask id="path-1-inside-1_2_29" fill="white">
<path d="M456 112C447.125 112 440 119.125 440 128C440 136.875 447.125 144 456 144C464.875 144 472 136.875 472 128C472 119.125 464.9 112 456 112ZM376 112C367.125 112 360 119.125 360 128C360 136.875 367.125 144 376 144C384.875 144 392 136.875 392 128C392 119.125 384.9 112 376 112ZM128 246V256L192 288L164.3 204.1C151.5 215.8 139.1 229.2 128 246ZM256 256V162.9C242.2 165.234 225.82 169.507 208.67 177.12L256 256Z"/>
<path d="M290.6 160C284.4 160 271.9 160.2 256 162.9V256L208.7 177.1C194 183.6 178.9 192.6 164.3 204.1L192 288L128 256V160C128 107 85 64 32 64C14.38 64 0 78.4 0 96C0 113.6 14.38 128 32 128C49.62 128 64 142.38 64 160V416C64 451.25 92.75 480 128 480H304C312.875 480 320 472.875 320 464.9V448C320 430.38 305.62 416 288 416H256L384 320V464C384 472.875 391.125 480 400 480H432C440.875 480 448 472.875 448 464V257.9C437.75 260.525 427.12 262.4 416 262.4C354.3 262.4 302.5 218.4 290.6 160ZM448 64H384L320 0V134.4C320 187.4 363 229.5 416 229.5C469 229.5 512 187.4 512 134.4V0L448 64ZM376 144C367.125 144 360 136.875 360 128C360 119.125 367.125 112 376 112C384.875 112 392 119.125 392 128C392 136.875 384.9 144 376 144ZM456 144C447.125 144 440 136.875 440 128C440 119.125 447.125 112 456 112C464.875 112 472 119.125 472 128C472 136.875 464.9 144 456 144Z"/>
<path d="M392 128C392 136.837 384.837 144 376 144C367.163 144 360 136.837 360 128C360 119.163 367.163 112 376 112C384.837 112 392 119.163 392 128Z"/>
<path d="M379 128C379 135.732 377.657 142 376 142C374.343 142 373 135.732 373 128C373 120.268 374.343 114 376 114C377.657 114 379 120.268 379 128Z"/>
<path d="M472 128C472 136.837 464.837 144 456 144C447.163 144 440 136.837 440 128C440 119.163 447.163 112 456 112C464.837 112 472 119.163 472 128Z"/>
<path d="M459 128C459 135.732 457.657 142 456 142C454.343 142 453 135.732 453 128C453 120.268 454.343 114 456 114C457.657 114 459 120.268 459 128Z"/>
</mask>
<path d="M456 112C447.125 112 440 119.125 440 128C440 136.875 447.125 144 456 144C464.875 144 472 136.875 472 128C472 119.125 464.9 112 456 112ZM376 112C367.125 112 360 119.125 360 128C360 136.875 367.125 144 376 144C384.875 144 392 136.875 392 128C392 119.125 384.9 112 376 112ZM128 246V256L192 288L164.3 204.1C151.5 215.8 139.1 229.2 128 246ZM256 256V162.9C242.2 165.234 225.82 169.507 208.67 177.12L256 256Z" fill="#361616"/>
<path d="M290.6 160C284.4 160 271.9 160.2 256 162.9V256L208.7 177.1C194 183.6 178.9 192.6 164.3 204.1L192 288L128 256V160C128 107 85 64 32 64C14.38 64 0 78.4 0 96C0 113.6 14.38 128 32 128C49.62 128 64 142.38 64 160V416C64 451.25 92.75 480 128 480H304C312.875 480 320 472.875 320 464.9V448C320 430.38 305.62 416 288 416H256L384 320V464C384 472.875 391.125 480 400 480H432C440.875 480 448 472.875 448 464V257.9C437.75 260.525 427.12 262.4 416 262.4C354.3 262.4 302.5 218.4 290.6 160ZM448 64H384L320 0V134.4C320 187.4 363 229.5 416 229.5C469 229.5 512 187.4 512 134.4V0L448 64ZM376 144C367.125 144 360 136.875 360 128C360 119.125 367.125 112 376 112C384.875 112 392 119.125 392 128C392 136.875 384.9 144 376 144ZM456 144C447.125 144 440 136.875 440 128C440 119.125 447.125 112 456 112C464.875 112 472 119.125 472 128C472 136.875 464.9 144 456 144Z" fill="#D9B491"/>
<path d="M392 128C392 136.837 384.837 144 376 144C367.163 144 360 136.837 360 128C360 119.163 367.163 112 376 112C384.837 112 392 119.163 392 128Z" fill="#8AFFFF"/>
<path d="M379 128C379 135.732 377.657 142 376 142C374.343 142 373 135.732 373 128C373 120.268 374.343 114 376 114C377.657 114 379 120.268 379 128Z" fill="black"/>
<path d="M472 128C472 136.837 464.837 144 456 144C447.163 144 440 136.837 440 128C440 119.163 447.163 112 456 112C464.837 112 472 119.163 472 128Z" fill="#8AFFFF"/>
<path d="M459 128C459 135.732 457.657 142 456 142C454.343 142 453 135.732 453 128C453 120.268 454.343 114 456 114C457.657 114 459 120.268 459 128Z" fill="black"/>
<path d="M192 288L191.776 288.447L192.852 288.985L192.475 287.843L192 288ZM456 111.5C446.849 111.5 439.5 118.849 439.5 128H440.5C440.5 119.401 447.401 112.5 456 112.5V111.5ZM439.5 128C439.5 137.151 446.849 144.5 456 144.5V143.5C447.401 143.5 440.5 136.599 440.5 128H439.5ZM376 111.5C366.849 111.5 359.5 118.849 359.5 128H360.5C360.5 119.401 367.401 112.5 376 112.5V111.5ZM359.5 128C359.5 137.151 366.849 144.5 376 144.5V143.5C367.401 143.5 360.5 136.599 360.5 128H359.5ZM127.776 256.447L191.776 288.447L192.224 287.553L128.224 255.553L127.776 256.447ZM192.475 287.843L164.775 203.943L163.825 204.257L191.525 288.157L192.475 287.843ZM256.5 256V162.9H255.5V256H256.5ZM128 246L127.166 245.449L127 245.699V246H128ZM164.3 204.1L163.681 203.314L163.652 203.337L163.625 203.362L164.3 204.1ZM256 256L255.143 256.515L256.858 255.486L256 256ZM256 162.9L256.167 163.886L256.167 163.886L256 162.9ZM208.67 177.12L208.264 176.206L207.231 176.665L207.813 177.635L208.67 177.12ZM290.6 160L291.58 159.8L291.417 159H290.6V160ZM208.7 177.1L209.558 176.586L209.103 175.828L208.296 176.185L208.7 177.1ZM256 416L255.4 415.2L253 417H256V416ZM384 320H385V318L383.4 319.2L384 320ZM448 257.9H449V256.612L447.752 256.931L448 257.9ZM448 64V65H448.414L448.707 64.7071L448 64ZM384 64L383.293 64.7071L383.586 65H384V64ZM320 0L320.707 -0.707107L319 -2.41421V0H320ZM512 0H513V-2.41421L511.293 -0.707107L512 0ZM456 145C465.427 145 473 137.427 473 128H471C471 136.323 464.323 143 456 143V145ZM473 128C473 118.574 465.453 111 456 111V113C464.347 113 471 119.676 471 128H473ZM376 145C385.427 145 393 137.427 393 128H391C391 136.323 384.323 143 376 143V145ZM393 128C393 118.574 385.453 111 376 111V113C384.347 113 391 119.676 391 128H393ZM127 246V256H129V246H127ZM163.625 203.362C150.78 215.103 138.321 228.564 127.166 245.449L128.834 246.551C139.879 229.836 152.22 216.497 164.975 204.838L163.625 203.362ZM255.833 161.914C241.965 164.26 225.503 168.554 208.264 176.206L209.076 178.034C226.137 170.46 242.435 166.208 256.167 163.886L255.833 161.914ZM207.813 177.635L255.143 256.515L256.857 255.485L209.527 176.605L207.813 177.635ZM290.6 159C284.371 159 271.809 159.201 255.833 161.914L256.167 163.886C271.991 161.199 284.429 161 290.6 161V159ZM256.858 255.486L209.558 176.586L207.842 177.614L255.142 256.514L256.858 255.486ZM208.296 176.185C193.516 182.721 178.344 191.765 163.681 203.314L164.919 204.886C179.456 193.435 194.484 184.479 209.104 178.015L208.296 176.185ZM129 256V160H127V256H129ZM129 160C129 106.448 85.5523 63 32 63V65C84.4477 65 127 107.552 127 160H129ZM32 63C13.8273 63 -1 77.8481 -1 96H1C1 78.9519 14.9327 65 32 65V63ZM-1 96C-1 114.152 13.8273 129 32 129V127C14.9327 127 1 113.048 1 96H-1ZM32 129C49.0677 129 63 142.932 63 160H65C65 141.828 50.1723 127 32 127V129ZM63 160V416H65V160H63ZM63 416C63 451.802 92.1977 481 128 481V479C93.3023 479 65 450.698 65 416H63ZM128 481H304V479H128V481ZM304 481C313.39 481 321 473.464 321 464.9H319C319 472.286 312.36 479 304 479V481ZM321 464.9V448H319V464.9H321ZM321 448C321 429.828 306.172 415 288 415V417C305.068 417 319 430.932 319 448H321ZM288 415H256V417H288V415ZM256.6 416.8L384.6 320.8L383.4 319.2L255.4 415.2L256.6 416.8ZM383 320V464H385V320H383ZM383 464C383 473.427 390.573 481 400 481V479C391.677 479 385 472.323 385 464H383ZM400 481H432V479H400V481ZM432 481C441.427 481 449 473.427 449 464H447C447 472.323 440.323 479 432 479V481ZM449 464V257.9H447V464H449ZM447.752 256.931C437.55 259.544 427.008 261.4 416 261.4V263.4C427.232 263.4 437.95 261.506 448.248 258.869L447.752 256.931ZM416 261.4C354.785 261.4 303.387 217.744 291.58 159.8L289.62 160.2C301.613 219.056 353.815 263.4 416 263.4V261.4ZM448 63H384V65H448V63ZM384.707 63.2929L320.707 -0.707107L319.293 0.707107L383.293 64.7071L384.707 63.2929ZM319 0V134.4H321V0H319ZM319 134.4C319 187.965 362.46 230.5 416 230.5V228.5C363.54 228.5 321 186.835 321 134.4H319ZM416 230.5C469.54 230.5 513 187.965 513 134.4H511C511 186.835 468.46 228.5 416 228.5V230.5ZM513 134.4V0H511V134.4H513ZM511.293 -0.707107L447.293 63.2929L448.707 64.7071L512.707 0.707107L511.293 -0.707107ZM376 113C384.323 113 391 119.677 391 128H393C393 118.573 385.427 111 376 111V113ZM391 128C391 136.324 384.347 143 376 143V145C385.453 145 393 137.426 393 128H391ZM456 113C464.323 113 471 119.677 471 128H473C473 118.573 465.427 111 456 111V113ZM471 128C471 136.324 464.347 143 456 143V145C465.453 145 473 137.426 473 128H471ZM391 128C391 136.284 384.284 143 376 143V145C385.389 145 393 137.389 393 128H391ZM376 143C367.716 143 361 136.284 361 128H359C359 137.389 366.611 145 376 145V143ZM361 128C361 119.716 367.716 113 376 113V111C366.611 111 359 118.611 359 128H361ZM376 113C384.284 113 391 119.716 391 128H393C393 118.611 385.389 111 376 111V113ZM378 128C378 131.817 377.668 135.244 377.144 137.69C376.88 138.921 376.578 139.851 376.276 140.448C376.124 140.748 375.996 140.914 375.914 140.992C375.836 141.067 375.868 141 376 141V143C376.546 143 376.983 142.737 377.295 142.439C377.604 142.144 377.853 141.76 378.06 141.352C378.475 140.532 378.82 139.411 379.099 138.109C379.661 135.488 380 131.915 380 128H378ZM376 141C376.132 141 376.164 141.067 376.086 140.992C376.004 140.914 375.876 140.748 375.724 140.448C375.422 139.851 375.12 138.921 374.856 137.69C374.332 135.244 374 131.817 374 128H372C372 131.915 372.339 135.488 372.901 138.109C373.18 139.411 373.525 140.532 373.94 141.352C374.147 141.76 374.396 142.144 374.705 142.439C375.017 142.737 375.454 143 376 143V141ZM374 128C374 124.183 374.332 120.756 374.856 118.31C375.12 117.079 375.422 116.149 375.724 115.552C375.876 115.252 376.004 115.086 376.086 115.008C376.164 114.933 376.132 115 376 115V113C375.454 113 375.017 113.263 374.705 113.561C374.396 113.856 374.147 114.24 373.94 114.648C373.525 115.468 373.18 116.589 372.901 117.891C372.339 120.512 372 124.085 372 128H374ZM376 115C375.868 115 375.836 114.933 375.914 115.008C375.996 115.086 376.124 115.252 376.276 115.552C376.578 116.149 376.88 117.079 377.144 118.31C377.668 120.756 378 124.183 378 128H380C380 124.085 379.661 120.512 379.099 117.891C378.82 116.589 378.475 115.468 378.06 114.648C377.853 114.24 377.604 113.856 377.295 113.561C376.983 113.263 376.546 113 376 113V115ZM471 128C471 136.284 464.284 143 456 143V145C465.389 145 473 137.389 473 128H471ZM456 143C447.716 143 441 136.284 441 128H439C439 137.389 446.611 145 456 145V143ZM441 128C441 119.716 447.716 113 456 113V111C446.611 111 439 118.611 439 128H441ZM456 113C464.284 113 471 119.716 471 128H473C473 118.611 465.389 111 456 111V113ZM458 128C458 131.817 457.668 135.244 457.144 137.69C456.88 138.921 456.578 139.851 456.276 140.448C456.124 140.748 455.996 140.914 455.914 140.992C455.836 141.067 455.868 141 456 141V143C456.546 143 456.983 142.737 457.295 142.439C457.604 142.144 457.853 141.76 458.06 141.352C458.475 140.532 458.82 139.411 459.099 138.109C459.661 135.488 460 131.915 460 128H458ZM456 141C456.132 141 456.164 141.067 456.086 140.992C456.004 140.914 455.876 140.748 455.724 140.448C455.422 139.851 455.12 138.921 454.856 137.69C454.332 135.244 454 131.817 454 128H452C452 131.915 452.339 135.488 452.901 138.109C453.18 139.411 453.525 140.532 453.94 141.352C454.147 141.76 454.396 142.144 454.705 142.439C455.017 142.737 455.454 143 456 143V141ZM454 128C454 124.183 454.332 120.756 454.856 118.31C455.12 117.079 455.422 116.149 455.724 115.552C455.876 115.252 456.004 115.086 456.086 115.008C456.164 114.933 456.132 115 456 115V113C455.454 113 455.017 113.263 454.705 113.561C454.396 113.856 454.147 114.24 453.94 114.648C453.525 115.468 453.18 116.589 452.901 117.891C452.339 120.512 452 124.085 452 128H454ZM456 115C455.868 115 455.836 114.933 455.914 115.008C455.996 115.086 456.124 115.252 456.276 115.552C456.578 116.149 456.88 117.079 457.144 118.31C457.668 120.756 458 124.183 458 128H460C460 124.085 459.661 120.512 459.099 117.891C458.82 116.589 458.475 115.468 458.06 114.648C457.853 114.24 457.604 113.856 457.295 113.561C456.983 113.263 456.546 113 456 113V115Z" fill="black" mask="url(#path-1-inside-1_2_29)"/>
</svg>
