<svg id="Layer_1" data-name="Layer 1"
    xmlns="http://www.w3.org/2000/svg" viewBox="0 0 93.87 96.32" width="100" height="100">
    <defs>
        <style>
                .cls-1 {
                    fill: none;
                    stroke: #4c170f;
                    stroke-linecap: round;
                    stroke-linejoin: round;
                    stroke-width: 4px;
                }

                .cls-2 {
                    fill: #45ff6f;
                }

                .cls-3 {
                    fill: #ff2107;
                }

                .cls-4 {
                    fill: #73fff5;
                }
        </style>
    </defs>
    <path class="cls-1" d="M63.85,32.32c0,7-10.71,10.09-8,11,2.35.78,8.82.87,11.87,1.13a.78.78,0,0,1,.49,1.33,75.87,75.87,0,0,0-5.69,6.47c-3.06,3.89-5.78,8.16-7,12.94-2,8.11.75,17.5,7.42,22.67a55.49,55.49,0,0,1,6.58,6.46" />
    <path class="cls-1" d="M23.23,92.85c3.28-3,6.59-6,9-9.73s3.86-8.21,3-12.53c-1-5.4-5.36-9.52-9.29-13.44s-7.91-8.52-8-14c-.06-3.13,1.18-6.26.58-9.33a17.6,17.6,0,0,0,6.66,10.52,9,9,0,0,0,5.23,2.08,4.59,4.59,0,0,0,4.48-2.87,5.08,5.08,0,0,0-.34-3.38c-1-2.53-3.19-4.84-2.86-7.55.38-3.11,3.77-4.81,6-7a11.64,11.64,0,0,0,3.38-9.3,37.25,37.25,0,0,1,0,7.16,12.69,12.69,0,0,0,1.28,7c1.22,2.08,3.76,3.57,6.11,2.94,2-.54,5.4-2,7.4-7,2.16-5.42,1.25-16.24,2-14,3,9,3,11,14,6" />
    <path class="cls-2" d="M30.78,73.55C9.51,68.64-4,50.49,1.06,28.42c3-13.2,14.2-23.15,26.59-27.8a8.06,8.06,0,1,1,6,15c-3.5.89-7.15,1.48-10.5,3.14A26.24,26.24,0,0,0,7.43,41C5.89,55.32,17.79,68.2,30.91,73.08a.26.26,0,0,1,.15.32.26.26,0,0,1-.28.15Z" />
    <path class="cls-3" d="M71.4,62.34c6.5.81,12-5.25,15.45-10.51a28.05,28.05,0,0,0,3.45-7.21C91.69,53.34,90,63.1,84.59,70.5A24.12,24.12,0,0,1,76,77.66L73.69,78.8a8.75,8.75,0,0,1-11.72-4C58.73,68.48,64.5,61,71.4,62.34Z" />
    <path class="cls-4" d="M75.19,29.66c4.22-3,7.23-7.18,6.66-12.42-.63-3-3.11-5.67-5.77-7.64a19.11,19.11,0,0,0-6.84-3.06A41.12,41.12,0,0,0,52.67,5.6a22,22,0,0,0-8,2.71.62.62,0,0,1-.85-.2.61.61,0,0,1,.1-.77C48.61,3.18,54.81,1.43,60.86.51A43.49,43.49,0,0,1,75.12.76c8.91,2,17.55,9,18.49,18.65,1.29,7.77-2.39,16.17-7.34,21.85a8.08,8.08,0,1,1-11.08-11.6Z" />
</svg>