<svg id="Layer_1" data-name="Layer 1"
    xmlns="http://www.w3.org/2000/svg" viewBox="0 0 96 96" width="96" height="96">
    <defs>
        <style>
                .cls-1,
                .cls-2,
                .cls-3 {
                    fill: none;
                    stroke-linecap: round;
                    stroke-width: 4px;
                }

                .cls-1 {
                    stroke: #ff2107;
                    stroke-linejoin: round;
                }

                .cls-2 {
                    stroke: #73fff5;
                }

                .cls-2,
                .cls-3 {
                    stroke-miterlimit: 10;
                }

                .cls-3 {
                    stroke: #45ff6f;
                }
        </style>
    </defs>
    <path class="cls-1" d="M23.39,92.54c3.27-3,6.59-6,9-9.74s3.86-8.21,3-12.52c-1-5.4-5.35-9.52-9.28-13.44s-7.92-8.53-8-14c-.06-3.12,1.17-6.26.57-9.33A17.7,17.7,0,0,0,25.34,44a9.13,9.13,0,0,0,5.23,2.08,4.59,4.59,0,0,0,4.48-2.88,5.05,5.05,0,0,0-.33-3.37c-1-2.54-3.2-4.85-2.87-7.55.39-3.12,3.77-4.81,6-7a11.69,11.69,0,0,0,3.38-9.31,38.18,38.18,0,0,1,0,7.17,12.71,12.71,0,0,0,1.29,7c1.22,2.07,3.75,3.56,6.1,2.94,2.06-.55,3.41-2.45,5.26-3.47a6.77,6.77,0,0,1,6.77.23,2.57,2.57,0,0,1,1.26,1.57,2.74,2.74,0,0,1-.74,2c-2,2.66-5.52,4.87-5.29,8.2.19,2.79,3.22,4.72,6.07,4.78s5.52-1.25,8.06-2.52a78.73,78.73,0,0,0-7.32,8.07c-3.06,3.9-5.78,8.17-7,12.94a23.05,23.05,0,0,0,7.41,22.67c2.38,2,5.27,3.67,6.58,6.46" />
    <path class="cls-2" d="M47.33,2.1c7.67-.83,21,3.7,23.19,9,3.24,10.59,12.41,17.47,20,25.93,2.15,3.18,4.31,7.41,3.23,10.59C91.56,62.42,74.86,68.88,62.43,70.89" />
    <path class="cls-3" d="M27.91,70.89C13.9,66.76,2.52,56.1,2,41.26c-.8-24.12,16-38.15,35.59-39.16" />
</svg>
